# xmcd CD database file
#
# Track frame offsets:
#	150
#	14475
#	39075
#	61950
#	92250
#	114600
#	131850
#	162750
#	185025
#	203175
#	224400
#	253600
#
# Disc length: 3583 seconds
#
# Revision: 0
# Processed by: cddbd v1.5.2PL0 Copyright (c) Steve Scherf et al.
# Submitted via: CDex 1.51
#
DISCID=a60dfd0c
DTITLE=Juke and The Blue Joint - Wrong Tool To Get Paid
DYEAR=2008
DGENRE=Blues
TTITLE0=The Wrong Man
TTITLE1=The Blues Is Alright
TTITLE2=So All Alone (Take Your Time)
TTITLE3=Can't Recall A Time
TTITLE4=Never Make A Move Too Soon
TTITLE5=Going In The Right Direction
TTITLE6=I Don't Need No Doctor
TTITLE7=Right Tool For The Job
TTITLE8=Smooth Sailing
TTITLE9=Soon As I Get Paid
TTITLE10=3 O'clock Blues
TTITLE11=Wrong Man (unplugged/accoustic du version)
EXTD=YEAR: 2008
EXTT0=
EXTT1=
EXTT2=
EXTT3=
EXTT4=
EXTT5=
EXTT6=
EXTT7=
EXTT8=
EXTT9=
EXTT10=
EXTT11=
PLAYORDER=
